<svg width="1440" height="560" viewBox="0 0 1440 560" fill="none" xmlns="http://www.w3.org/2000/svg">
<g clip-path="url(#clip0_27_317)">
<mask id="mask0_27_317" style="mask-type:luminance" maskUnits="userSpaceOnUse" x="0" y="0" width="1440" height="560">
<path d="M1440 0H0V560H1440V0Z" fill="white"/>
</mask>
<g mask="url(#mask0_27_317)">
<path d="M25 30C25 31.3261 25.5268 32.5979 26.4645 33.5355C27.4021 34.4732 28.6739 35 30 35C31.3261 35 32.5979 34.4732 33.5355 33.5355C34.4732 32.5979 35 31.3261 35 30C35 28.6739 34.4732 27.4021 33.5355 26.4645C32.5979 25.5268 31.3261 25 30 25C28.6739 25 27.4021 25.5268 26.4645 26.4645C25.5268 27.4021 25 28.6739 25 30V30Z" stroke="#3EB7ED"/>
<path d="M32 88L28 92L32 88Z" stroke="#3EB7ED"/>
<path d="M36 144L24 156L36 144Z" stroke="#3EB7ED"/>
<path d="M32 208L28 212L32 208Z" stroke="#3EB7ED"/>
<path d="M27 270C27 270.796 27.3161 271.559 27.8787 272.121C28.4413 272.684 29.2044 273 30 273C30.7956 273 31.5587 272.684 32.1213 272.121C32.6839 271.559 33 270.796 33 270C33 269.204 32.6839 268.441 32.1213 267.879C31.5587 267.316 30.7956 267 30 267C29.2044 267 28.4413 267.316 27.8787 267.879C27.3161 268.441 27 269.204 27 270V270Z" stroke="#3EB7ED"/>
<path d="M32 328L28 332L32 328Z" stroke="#3EB7ED"/>
<path d="M32 388L28 392L32 388Z" stroke="#3EB7ED"/>
<path d="M32 448L28 452L32 448Z" stroke="#3EB7ED"/>
<path d="M25 510C25 511.326 25.5268 512.598 26.4645 513.536C27.4021 514.473 28.6739 515 30 515C31.3261 515 32.5979 514.473 33.5355 513.536C34.4732 512.598 35 511.326 35 510C35 508.674 34.4732 507.402 33.5355 506.464C32.5979 505.527 31.3261 505 30 505C28.6739 505 27.4021 505.527 26.4645 506.464C25.5268 507.402 25 508.674 25 510V510Z" stroke="#3EB7ED"/>
<path d="M92 28L88 32L92 28Z" stroke="#3EB7ED"/>
<path d="M96 84L84 96L96 84Z" stroke="#3EB7ED"/>
<path d="M85 150C85 151.326 85.5268 152.598 86.4645 153.536C87.4021 154.473 88.6739 155 90 155C91.3261 155 92.5979 154.473 93.5355 153.536C94.4732 152.598 95 151.326 95 150C95 148.674 94.4732 147.402 93.5355 146.464C92.5979 145.527 91.3261 145 90 145C88.6739 145 87.4021 145.527 86.4645 146.464C85.5268 147.402 85 148.674 85 150V150Z" stroke="#3EB7ED"/>
<path d="M85 210C85 211.326 85.5268 212.598 86.4645 213.536C87.4021 214.473 88.6739 215 90 215C91.3261 215 92.5979 214.473 93.5355 213.536C94.4732 212.598 95 211.326 95 210C95 208.674 94.4732 207.402 93.5355 206.464C92.5979 205.527 91.3261 205 90 205C88.6739 205 87.4021 205.527 86.4645 206.464C85.5268 207.402 85 208.674 85 210V210Z" stroke="#3EB7ED"/>
<path d="M85 270C85 271.326 85.5268 272.598 86.4645 273.536C87.4021 274.473 88.6739 275 90 275C91.3261 275 92.5979 274.473 93.5355 273.536C94.4732 272.598 95 271.326 95 270C95 268.674 94.4732 267.402 93.5355 266.464C92.5979 265.527 91.3261 265 90 265C88.6739 265 87.4021 265.527 86.4645 266.464C85.5268 267.402 85 268.674 85 270V270Z" stroke="#3EB7ED"/>
<path d="M96 324L84 336L96 324Z" stroke="#3EB7ED"/>
<path d="M85 390C85 391.326 85.5268 392.598 86.4645 393.536C87.4021 394.473 88.6739 395 90 395C91.3261 395 92.5979 394.473 93.5355 393.536C94.4732 392.598 95 391.326 95 390C95 388.674 94.4732 387.402 93.5355 386.464C92.5979 385.527 91.3261 385 90 385C88.6739 385 87.4021 385.527 86.4645 386.464C85.5268 387.402 85 388.674 85 390V390Z" stroke="#3EB7ED"/>
<path d="M89 450C89 450.265 89.1054 450.52 89.2929 450.707C89.4804 450.895 89.7348 451 90 451C90.2652 451 90.5196 450.895 90.7071 450.707C90.8946 450.52 91 450.265 91 450C91 449.735 90.8946 449.48 90.7071 449.293C90.5196 449.105 90.2652 449 90 449C89.7348 449 89.4804 449.105 89.2929 449.293C89.1054 449.48 89 449.735 89 450V450Z" stroke="#3EB7ED"/>
<path d="M89 510C89 510.265 89.1054 510.52 89.2929 510.707C89.4804 510.895 89.7348 511 90 511C90.2652 511 90.5196 510.895 90.7071 510.707C90.8946 510.52 91 510.265 91 510C91 509.735 90.8946 509.48 90.7071 509.293C90.5196 509.105 90.2652 509 90 509C89.7348 509 89.4804 509.105 89.2929 509.293C89.1054 509.48 89 509.735 89 510V510Z" stroke="#3EB7ED"/>
<path d="M149 30C149 30.2652 149.105 30.5196 149.293 30.7071C149.48 30.8946 149.735 31 150 31C150.265 31 150.52 30.8946 150.707 30.7071C150.895 30.5196 151 30.2652 151 30C151 29.7348 150.895 29.4804 150.707 29.2929C150.52 29.1054 150.265 29 150 29C149.735 29 149.48 29.1054 149.293 29.2929C149.105 29.4804 149 29.7348 149 30V30Z" stroke="#3EB7ED"/>
<path d="M156 84L144 96L156 84Z" stroke="#3EB7ED"/>
<path d="M149 150C149 150.265 149.105 150.52 149.293 150.707C149.48 150.895 149.735 151 150 151C150.265 151 150.52 150.895 150.707 150.707C150.895 150.52 151 150.265 151 150C151 149.735 150.895 149.48 150.707 149.293C150.52 149.105 150.265 149 150 149C149.735 149 149.48 149.105 149.293 149.293C149.105 149.48 149 149.735 149 150V150Z" stroke="#3EB7ED"/>
<path d="M145 210C145 211.326 145.527 212.598 146.464 213.536C147.402 214.473 148.674 215 150 215C151.326 215 152.598 214.473 153.536 213.536C154.473 212.598 155 211.326 155 210C155 208.674 154.473 207.402 153.536 206.464C152.598 205.527 151.326 205 150 205C148.674 205 147.402 205.527 146.464 206.464C145.527 207.402 145 208.674 145 210V210Z" stroke="#3EB7ED"/>
<path d="M152 268L148 272L152 268Z" stroke="#3EB7ED"/>
<path d="M147 330C147 330.796 147.316 331.559 147.879 332.121C148.441 332.684 149.204 333 150 333C150.796 333 151.559 332.684 152.121 332.121C152.684 331.559 153 330.796 153 330C153 329.204 152.684 328.441 152.121 327.879C151.559 327.316 150.796 327 150 327C149.204 327 148.441 327.316 147.879 327.879C147.316 328.441 147 329.204 147 330V330Z" stroke="#3EB7ED"/>
<path d="M147 390C147 390.796 147.316 391.559 147.879 392.121C148.441 392.684 149.204 393 150 393C150.796 393 151.559 392.684 152.121 392.121C152.684 391.559 153 390.796 153 390C153 389.204 152.684 388.441 152.121 387.879C151.559 387.316 150.796 387 150 387C149.204 387 148.441 387.316 147.879 387.879C147.316 388.441 147 389.204 147 390V390Z" stroke="#3EB7ED"/>
<path d="M149 450C149 450.265 149.105 450.52 149.293 450.707C149.48 450.895 149.735 451 150 451C150.265 451 150.52 450.895 150.707 450.707C150.895 450.52 151 450.265 151 450C151 449.735 150.895 449.48 150.707 449.293C150.52 449.105 150.265 449 150 449C149.735 449 149.48 449.105 149.293 449.293C149.105 449.48 149 449.735 149 450V450Z" stroke="#3EB7ED"/>
<path d="M145 510C145 511.326 145.527 512.598 146.464 513.536C147.402 514.473 148.674 515 150 515C151.326 515 152.598 514.473 153.536 513.536C154.473 512.598 155 511.326 155 510C155 508.674 154.473 507.402 153.536 506.464C152.598 505.527 151.326 505 150 505C148.674 505 147.402 505.527 146.464 506.464C145.527 507.402 145 508.674 145 510V510Z" stroke="#3EB7ED"/>
<path d="M207 30C207 30.7956 207.316 31.5587 207.879 32.1213C208.441 32.6839 209.204 33 210 33C210.796 33 211.559 32.6839 212.121 32.1213C212.684 31.5587 213 30.7956 213 30C213 29.2044 212.684 28.4413 212.121 27.8787C211.559 27.3161 210.796 27 210 27C209.204 27 208.441 27.3161 207.879 27.8787C207.316 28.4413 207 29.2044 207 30V30Z" stroke="#3EB7ED"/>
<path d="M207 90C207 90.7956 207.316 91.5587 207.879 92.1213C208.441 92.6839 209.204 93 210 93C210.796 93 211.559 92.6839 212.121 92.1213C212.684 91.5587 213 90.7956 213 90C213 89.2044 212.684 88.4413 212.121 87.8787C211.559 87.3161 210.796 87 210 87C209.204 87 208.441 87.3161 207.879 87.8787C207.316 88.4413 207 89.2044 207 90V90Z" stroke="#3EB7ED"/>
<path d="M216 144L204 156L216 144Z" stroke="#3EB7ED"/>
<path d="M209 210C209 210.265 209.105 210.52 209.293 210.707C209.48 210.895 209.735 211 210 211C210.265 211 210.52 210.895 210.707 210.707C210.895 210.52 211 210.265 211 210C211 209.735 210.895 209.48 210.707 209.293C210.52 209.105 210.265 209 210 209C209.735 209 209.48 209.105 209.293 209.293C209.105 209.48 209 209.735 209 210V210Z" stroke="#3EB7ED"/>
<path d="M212 268L208 272L212 268Z" stroke="#3EB7ED"/>
<path d="M216 324L204 336L216 324Z" stroke="#3EB7ED"/>
<path d="M207 390C207 390.796 207.316 391.559 207.879 392.121C208.441 392.684 209.204 393 210 393C210.796 393 211.559 392.684 212.121 392.121C212.684 391.559 213 390.796 213 390C213 389.204 212.684 388.441 212.121 387.879C211.559 387.316 210.796 387 210 387C209.204 387 208.441 387.316 207.879 387.879C207.316 388.441 207 389.204 207 390V390Z" stroke="#3EB7ED"/>
<path d="M205 450C205 451.326 205.527 452.598 206.464 453.536C207.402 454.473 208.674 455 210 455C211.326 455 212.598 454.473 213.536 453.536C214.473 452.598 215 451.326 215 450C215 448.674 214.473 447.402 213.536 446.464C212.598 445.527 211.326 445 210 445C208.674 445 207.402 445.527 206.464 446.464C205.527 447.402 205 448.674 205 450V450Z" stroke="#3EB7ED"/>
<path d="M205 510C205 511.326 205.527 512.598 206.464 513.536C207.402 514.473 208.674 515 210 515C211.326 515 212.598 514.473 213.536 513.536C214.473 512.598 215 511.326 215 510C215 508.674 214.473 507.402 213.536 506.464C212.598 505.527 211.326 505 210 505C208.674 505 207.402 505.527 206.464 506.464C205.527 507.402 205 508.674 205 510V510Z" stroke="#3EB7ED"/>
<path d="M265 30C265 31.3261 265.527 32.5979 266.464 33.5355C267.402 34.4732 268.674 35 270 35C271.326 35 272.598 34.4732 273.536 33.5355C274.473 32.5979 275 31.3261 275 30C275 28.6739 274.473 27.4021 273.536 26.4645C272.598 25.5268 271.326 25 270 25C268.674 25 267.402 25.5268 266.464 26.4645C265.527 27.4021 265 28.6739 265 30V30Z" stroke="#3EB7ED"/>
<path d="M276 84L264 96L276 84Z" stroke="#3EB7ED"/>
<path d="M272 148L268 152L272 148Z" stroke="#3EB7ED"/>
<path d="M276 204L264 216L276 204Z" stroke="#3EB7ED"/>
<path d="M265 270C265 271.326 265.527 272.598 266.464 273.536C267.402 274.473 268.674 275 270 275C271.326 275 272.598 274.473 273.536 273.536C274.473 272.598 275 271.326 275 270C275 268.674 274.473 267.402 273.536 266.464C272.598 265.527 271.326 265 270 265C268.674 265 267.402 265.527 266.464 266.464C265.527 267.402 265 268.674 265 270V270Z" stroke="#3EB7ED"/>
<path d="M265 330C265 331.326 265.527 332.598 266.464 333.536C267.402 334.473 268.674 335 270 335C271.326 335 272.598 334.473 273.536 333.536C274.473 332.598 275 331.326 275 330C275 328.674 274.473 327.402 273.536 326.464C272.598 325.527 271.326 325 270 325C268.674 325 267.402 325.527 266.464 326.464C265.527 327.402 265 328.674 265 330V330Z" stroke="#3EB7ED"/>
<path d="M267 390C267 390.796 267.316 391.559 267.879 392.121C268.441 392.684 269.204 393 270 393C270.796 393 271.559 392.684 272.121 392.121C272.684 391.559 273 390.796 273 390C273 389.204 272.684 388.441 272.121 387.879C271.559 387.316 270.796 387 270 387C269.204 387 268.441 387.316 267.879 387.879C267.316 388.441 267 389.204 267 390V390Z" stroke="#3EB7ED"/>
<path d="M269 450C269 450.265 269.105 450.52 269.293 450.707C269.48 450.895 269.735 451 270 451C270.265 451 270.52 450.895 270.707 450.707C270.895 450.52 271 450.265 271 450C271 449.735 270.895 449.48 270.707 449.293C270.52 449.105 270.265 449 270 449C269.735 449 269.48 449.105 269.293 449.293C269.105 449.48 269 449.735 269 450V450Z" stroke="#3EB7ED"/>
<path d="M276 504L264 516L276 504Z" stroke="#3EB7ED"/>
<path d="M336 24L324 36L336 24Z" stroke="#3EB7ED"/>
<path d="M329 90C329 90.2652 329.105 90.5196 329.293 90.7071C329.48 90.8946 329.735 91 330 91C330.265 91 330.52 90.8946 330.707 90.7071C330.895 90.5196 331 90.2652 331 90C331 89.7348 330.895 89.4804 330.707 89.2929C330.52 89.1054 330.265 89 330 89C329.735 89 329.48 89.1054 329.293 89.2929C329.105 89.4804 329 89.7348 329 90V90Z" stroke="#3EB7ED"/>
<path d="M332 148L328 152L332 148Z" stroke="#3EB7ED"/>
<path d="M336 204L324 216L336 204Z" stroke="#3EB7ED"/>
<path d="M325 270C325 271.326 325.527 272.598 326.464 273.536C327.402 274.473 328.674 275 330 275C331.326 275 332.598 274.473 333.536 273.536C334.473 272.598 335 271.326 335 270C335 268.674 334.473 267.402 333.536 266.464C332.598 265.527 331.326 265 330 265C328.674 265 327.402 265.527 326.464 266.464C325.527 267.402 325 268.674 325 270V270Z" stroke="#3EB7ED"/>
<path d="M336 324L324 336L336 324Z" stroke="#3EB7ED"/>
<path d="M360 360L300 420L360 360Z" stroke="#3EB7ED" stroke-width="3"/>
<path d="M332 448L328 452L332 448Z" stroke="#3EB7ED"/>
<path d="M327 510C327 510.796 327.316 511.559 327.879 512.121C328.441 512.684 329.204 513 330 513C330.796 513 331.559 512.684 332.121 512.121C332.684 511.559 333 510.796 333 510C333 509.204 332.684 508.441 332.121 507.879C331.559 507.316 330.796 507 330 507C329.204 507 328.441 507.316 327.879 507.879C327.316 508.441 327 509.204 327 510V510Z" stroke="#3EB7ED"/>
<path d="M420 0L360 60L420 0Z" stroke="#3EB7ED" stroke-width="3"/>
<path d="M385 90C385 91.3261 385.527 92.5979 386.464 93.5355C387.402 94.4732 388.674 95 390 95C391.326 95 392.598 94.4732 393.536 93.5355C394.473 92.5979 395 91.3261 395 90C395 88.6739 394.473 87.4021 393.536 86.4645C392.598 85.5268 391.326 85 390 85C388.674 85 387.402 85.5268 386.464 86.4645C385.527 87.4021 385 88.6739 385 90V90Z" stroke="#3EB7ED"/>
<path d="M389 150C389 150.265 389.105 150.52 389.293 150.707C389.48 150.895 389.735 151 390 151C390.265 151 390.52 150.895 390.707 150.707C390.895 150.52 391 150.265 391 150C391 149.735 390.895 149.48 390.707 149.293C390.52 149.105 390.265 149 390 149C389.735 149 389.48 149.105 389.293 149.293C389.105 149.48 389 149.735 389 150V150Z" stroke="#3EB7ED"/>
<path d="M385 210C385 211.326 385.527 212.598 386.464 213.536C387.402 214.473 388.674 215 390 215C391.326 215 392.598 214.473 393.536 213.536C394.473 212.598 395 211.326 395 210C395 208.674 394.473 207.402 393.536 206.464C392.598 205.527 391.326 205 390 205C388.674 205 387.402 205.527 386.464 206.464C385.527 207.402 385 208.674 385 210V210Z" stroke="#3EB7ED"/>
<path d="M385 270C385 271.326 385.527 272.598 386.464 273.536C387.402 274.473 388.674 275 390 275C391.326 275 392.598 274.473 393.536 273.536C394.473 272.598 395 271.326 395 270C395 268.674 394.473 267.402 393.536 266.464C392.598 265.527 391.326 265 390 265C388.674 265 387.402 265.527 386.464 266.464C385.527 267.402 385 268.674 385 270V270Z" stroke="#3EB7ED"/>
<path d="M385 330C385 331.326 385.527 332.598 386.464 333.536C387.402 334.473 388.674 335 390 335C391.326 335 392.598 334.473 393.536 333.536C394.473 332.598 395 331.326 395 330C395 328.674 394.473 327.402 393.536 326.464C392.598 325.527 391.326 325 390 325C388.674 325 387.402 325.527 386.464 326.464C385.527 327.402 385 328.674 385 330V330Z" stroke="#3EB7ED"/>
<path d="M389 390C389 390.265 389.105 390.52 389.293 390.707C389.48 390.895 389.735 391 390 391C390.265 391 390.52 390.895 390.707 390.707C390.895 390.52 391 390.265 391 390C391 389.735 390.895 389.48 390.707 389.293C390.52 389.105 390.265 389 390 389C389.735 389 389.48 389.105 389.293 389.293C389.105 389.48 389 389.735 389 390V390Z" stroke="#3EB7ED"/>
<path d="M396 444L384 456L396 444Z" stroke="#3EB7ED"/>
<path d="M396 504L384 516L396 504Z" stroke="#3EB7ED"/>
<path d="M452 28L448 32L452 28Z" stroke="#3EB7ED"/>
<path d="M445 90C445 91.3261 445.527 92.5979 446.464 93.5355C447.402 94.4732 448.674 95 450 95C451.326 95 452.598 94.4732 453.536 93.5355C454.473 92.5979 455 91.3261 455 90C455 88.6739 454.473 87.4021 453.536 86.4645C452.598 85.5268 451.326 85 450 85C448.674 85 447.402 85.5268 446.464 86.4645C445.527 87.4021 445 88.6739 445 90V90Z" stroke="#3EB7ED"/>
<path d="M456 144L444 156L456 144Z" stroke="#3EB7ED"/>
<path d="M445 210C445 211.326 445.527 212.598 446.464 213.536C447.402 214.473 448.674 215 450 215C451.326 215 452.598 214.473 453.536 213.536C454.473 212.598 455 211.326 455 210C455 208.674 454.473 207.402 453.536 206.464C452.598 205.527 451.326 205 450 205C448.674 205 447.402 205.527 446.464 206.464C445.527 207.402 445 208.674 445 210V210Z" stroke="#3EB7ED"/>
<path d="M447 270C447 270.796 447.316 271.559 447.879 272.121C448.441 272.684 449.204 273 450 273C450.796 273 451.559 272.684 452.121 272.121C452.684 271.559 453 270.796 453 270C453 269.204 452.684 268.441 452.121 267.879C451.559 267.316 450.796 267 450 267C449.204 267 448.441 267.316 447.879 267.879C447.316 268.441 447 269.204 447 270V270Z" stroke="#3EB7ED"/>
<path d="M445 330C445 331.326 445.527 332.598 446.464 333.536C447.402 334.473 448.674 335 450 335C451.326 335 452.598 334.473 453.536 333.536C454.473 332.598 455 331.326 455 330C455 328.674 454.473 327.402 453.536 326.464C452.598 325.527 451.326 325 450 325C448.674 325 447.402 325.527 446.464 326.464C445.527 327.402 445 328.674 445 330V330Z" stroke="#3EB7ED"/>
<path d="M480 360L420 420L480 360Z" stroke="#3EB7ED" stroke-width="3"/>
<path d="M445 450C445 451.326 445.527 452.598 446.464 453.536C447.402 454.473 448.674 455 450 455C451.326 455 452.598 454.473 453.536 453.536C454.473 452.598 455 451.326 455 450C455 448.674 454.473 447.402 453.536 446.464C452.598 445.527 451.326 445 450 445C448.674 445 447.402 445.527 446.464 446.464C445.527 447.402 445 448.674 445 450V450Z" stroke="#3EB7ED"/>
<path d="M445 510C445 511.326 445.527 512.598 446.464 513.536C447.402 514.473 448.674 515 450 515C451.326 515 452.598 514.473 453.536 513.536C454.473 512.598 455 511.326 455 510C455 508.674 454.473 507.402 453.536 506.464C452.598 505.527 451.326 505 450 505C448.674 505 447.402 505.527 446.464 506.464C445.527 507.402 445 508.674 445 510V510Z" stroke="#3EB7ED"/>
<path d="M516 24L504 36L516 24Z" stroke="#3EB7ED"/>
<path d="M509 90C509 90.2652 509.105 90.5196 509.293 90.7071C509.48 90.8946 509.735 91 510 91C510.265 91 510.52 90.8946 510.707 90.7071C510.895 90.5196 511 90.2652 511 90C511 89.7348 510.895 89.4804 510.707 89.2929C510.52 89.1054 510.265 89 510 89C509.735 89 509.48 89.1054 509.293 89.2929C509.105 89.4804 509 89.7348 509 90V90Z" stroke="#3EB7ED"/>
<path d="M505 150C505 151.326 505.527 152.598 506.464 153.536C507.402 154.473 508.674 155 510 155C511.326 155 512.598 154.473 513.536 153.536C514.473 152.598 515 151.326 515 150C515 148.674 514.473 147.402 513.536 146.464C512.598 145.527 511.326 145 510 145C508.674 145 507.402 145.527 506.464 146.464C505.527 147.402 505 148.674 505 150V150Z" stroke="#3EB7ED"/>
<path d="M505 210C505 211.326 505.527 212.598 506.464 213.536C507.402 214.473 508.674 215 510 215C511.326 215 512.598 214.473 513.536 213.536C514.473 212.598 515 211.326 515 210C515 208.674 514.473 207.402 513.536 206.464C512.598 205.527 511.326 205 510 205C508.674 205 507.402 205.527 506.464 206.464C505.527 207.402 505 208.674 505 210V210Z" stroke="#3EB7ED"/>
<path d="M505 270C505 271.326 505.527 272.598 506.464 273.536C507.402 274.473 508.674 275 510 275C511.326 275 512.598 274.473 513.536 273.536C514.473 272.598 515 271.326 515 270C515 268.674 514.473 267.402 513.536 266.464C512.598 265.527 511.326 265 510 265C508.674 265 507.402 265.527 506.464 266.464C505.527 267.402 505 268.674 505 270V270Z" stroke="#3EB7ED"/>
<path d="M516 324L504 336L516 324Z" stroke="#3EB7ED"/>
<path d="M505 390C505 391.326 505.527 392.598 506.464 393.536C507.402 394.473 508.674 395 510 395C511.326 395 512.598 394.473 513.536 393.536C514.473 392.598 515 391.326 515 390C515 388.674 514.473 387.402 513.536 386.464C512.598 385.527 511.326 385 510 385C508.674 385 507.402 385.527 506.464 386.464C505.527 387.402 505 388.674 505 390V390Z" stroke="#3EB7ED"/>
<path d="M512 448L508 452L512 448Z" stroke="#3EB7ED"/>
<path d="M505 510C505 511.326 505.527 512.598 506.464 513.536C507.402 514.473 508.674 515 510 515C511.326 515 512.598 514.473 513.536 513.536C514.473 512.598 515 511.326 515 510C515 508.674 514.473 507.402 513.536 506.464C512.598 505.527 511.326 505 510 505C508.674 505 507.402 505.527 506.464 506.464C505.527 507.402 505 508.674 505 510V510Z" stroke="#3EB7ED"/>
<path d="M540 540L480 600L540 540Z" stroke="#3EB7ED" stroke-width="3"/>
<path d="M565 30C565 31.3261 565.527 32.5979 566.464 33.5355C567.402 34.4732 568.674 35 570 35C571.326 35 572.598 34.4732 573.536 33.5355C574.473 32.5979 575 31.3261 575 30C575 28.6739 574.473 27.4021 573.536 26.4645C572.598 25.5268 571.326 25 570 25C568.674 25 567.402 25.5268 566.464 26.4645C565.527 27.4021 565 28.6739 565 30V30Z" stroke="#3EB7ED"/>
<path d="M565 90C565 91.3261 565.527 92.5979 566.464 93.5355C567.402 94.4732 568.674 95 570 95C571.326 95 572.598 94.4732 573.536 93.5355C574.473 92.5979 575 91.3261 575 90C575 88.6739 574.473 87.4021 573.536 86.4645C572.598 85.5268 571.326 85 570 85C568.674 85 567.402 85.5268 566.464 86.4645C565.527 87.4021 565 88.6739 565 90V90Z" stroke="#3EB7ED"/>
<path d="M567 150C567 150.796 567.316 151.559 567.879 152.121C568.441 152.684 569.204 153 570 153C570.796 153 571.559 152.684 572.121 152.121C572.684 151.559 573 150.796 573 150C573 149.204 572.684 148.441 572.121 147.879C571.559 147.316 570.796 147 570 147C569.204 147 568.441 147.316 567.879 147.879C567.316 148.441 567 149.204 567 150V150Z" stroke="#3EB7ED"/>
<path d="M565 210C565 211.326 565.527 212.598 566.464 213.536C567.402 214.473 568.674 215 570 215C571.326 215 572.598 214.473 573.536 213.536C574.473 212.598 575 211.326 575 210C575 208.674 574.473 207.402 573.536 206.464C572.598 205.527 571.326 205 570 205C568.674 205 567.402 205.527 566.464 206.464C565.527 207.402 565 208.674 565 210V210Z" stroke="#3EB7ED"/>
<path d="M572 268L568 272L572 268Z" stroke="#3EB7ED"/>
<path d="M600 300L540 360L600 300Z" stroke="#3EB7ED" stroke-width="3"/>
<path d="M600 360L540 420L600 360Z" stroke="#3EB7ED" stroke-width="3"/>
<path d="M565 450C565 451.326 565.527 452.598 566.464 453.536C567.402 454.473 568.674 455 570 455C571.326 455 572.598 454.473 573.536 453.536C574.473 452.598 575 451.326 575 450C575 448.674 574.473 447.402 573.536 446.464C572.598 445.527 571.326 445 570 445C568.674 445 567.402 445.527 566.464 446.464C565.527 447.402 565 448.674 565 450V450Z" stroke="#3EB7ED"/>
<path d="M576 504L564 516L576 504Z" stroke="#3EB7ED"/>
<path d="M625 30C625 31.3261 625.527 32.5979 626.464 33.5355C627.402 34.4732 628.674 35 630 35C631.326 35 632.598 34.4732 633.536 33.5355C634.473 32.5979 635 31.3261 635 30C635 28.6739 634.473 27.4021 633.536 26.4645C632.598 25.5268 631.326 25 630 25C628.674 25 627.402 25.5268 626.464 26.4645C625.527 27.4021 625 28.6739 625 30V30Z" stroke="#3EB7ED"/>
<path d="M636 84L624 96L636 84Z" stroke="#3EB7ED"/>
<path d="M627 150C627 150.796 627.316 151.559 627.879 152.121C628.441 152.684 629.204 153 630 153C630.796 153 631.559 152.684 632.121 152.121C632.684 151.559 633 150.796 633 150C633 149.204 632.684 148.441 632.121 147.879C631.559 147.316 630.796 147 630 147C629.204 147 628.441 147.316 627.879 147.879C627.316 148.441 627 149.204 627 150V150Z" stroke="#3EB7ED"/>
<path d="M660 180L600 240L660 180Z" stroke="#3EB7ED" stroke-width="3"/>
<path d="M636 264L624 276L636 264Z" stroke="#3EB7ED"/>
<path d="M636 324L624 336L636 324Z" stroke="#3EB7ED"/>
<path d="M625 390C625 391.326 625.527 392.598 626.464 393.536C627.402 394.473 628.674 395 630 395C631.326 395 632.598 394.473 633.536 393.536C634.473 392.598 635 391.326 635 390C635 388.674 634.473 387.402 633.536 386.464C632.598 385.527 631.326 385 630 385C628.674 385 627.402 385.527 626.464 386.464C625.527 387.402 625 388.674 625 390V390Z" stroke="#3EB7ED"/>
<path d="M629 450C629 450.265 629.105 450.52 629.293 450.707C629.48 450.895 629.735 451 630 451C630.265 451 630.52 450.895 630.707 450.707C630.895 450.52 631 450.265 631 450C631 449.735 630.895 449.48 630.707 449.293C630.52 449.105 630.265 449 630 449C629.735 449 629.48 449.105 629.293 449.293C629.105 449.48 629 449.735 629 450V450Z" stroke="#3EB7ED"/>
<path d="M629 510C629 510.265 629.105 510.52 629.293 510.707C629.48 510.895 629.735 511 630 511C630.265 511 630.52 510.895 630.707 510.707C630.895 510.52 631 510.265 631 510C631 509.735 630.895 509.48 630.707 509.293C630.52 509.105 630.265 509 630 509C629.735 509 629.48 509.105 629.293 509.293C629.105 509.48 629 509.735 629 510V510Z" stroke="#3EB7ED"/>
<path d="M696 24L684 36L696 24Z" stroke="#3EB7ED"/>
<path d="M692 88L688 92L692 88Z" stroke="#3EB7ED"/>
<path d="M685 150C685 151.326 685.527 152.598 686.464 153.536C687.402 154.473 688.674 155 690 155C691.326 155 692.598 154.473 693.536 153.536C694.473 152.598 695 151.326 695 150C695 148.674 694.473 147.402 693.536 146.464C692.598 145.527 691.326 145 690 145C688.674 145 687.402 145.527 686.464 146.464C685.527 147.402 685 148.674 685 150V150Z" stroke="#3EB7ED"/>
<path d="M685 210C685 211.326 685.527 212.598 686.464 213.536C687.402 214.473 688.674 215 690 215C691.326 215 692.598 214.473 693.536 213.536C694.473 212.598 695 211.326 695 210C695 208.674 694.473 207.402 693.536 206.464C692.598 205.527 691.326 205 690 205C688.674 205 687.402 205.527 686.464 206.464C685.527 207.402 685 208.674 685 210V210Z" stroke="#3EB7ED"/>
<path d="M692 268L688 272L692 268Z" stroke="#3EB7ED"/>
<path d="M692 328L688 332L692 328Z" stroke="#3EB7ED"/>
<path d="M696 384L684 396L696 384Z" stroke="#3EB7ED"/>
<path d="M685 450C685 451.326 685.527 452.598 686.464 453.536C687.402 454.473 688.674 455 690 455C691.326 455 692.598 454.473 693.536 453.536C694.473 452.598 695 451.326 695 450C695 448.674 694.473 447.402 693.536 446.464C692.598 445.527 691.326 445 690 445C688.674 445 687.402 445.527 686.464 446.464C685.527 447.402 685 448.674 685 450V450Z" stroke="#3EB7ED"/>
<path d="M696 504L684 516L696 504Z" stroke="#3EB7ED"/>
<path d="M745 30C745 31.3261 745.527 32.5979 746.464 33.5355C747.402 34.4732 748.674 35 750 35C751.326 35 752.598 34.4732 753.536 33.5355C754.473 32.5979 755 31.3261 755 30C755 28.6739 754.473 27.4021 753.536 26.4645C752.598 25.5268 751.326 25 750 25C748.674 25 747.402 25.5268 746.464 26.4645C745.527 27.4021 745 28.6739 745 30V30Z" stroke="#3EB7ED"/>
<path d="M752 88L748 92L752 88Z" stroke="#3EB7ED"/>
<path d="M756 144L744 156L756 144Z" stroke="#3EB7ED"/>
<path d="M752 208L748 212L752 208Z" stroke="#3EB7ED"/>
<path d="M747 270C747 270.796 747.316 271.559 747.879 272.121C748.441 272.684 749.204 273 750 273C750.796 273 751.559 272.684 752.121 272.121C752.684 271.559 753 270.796 753 270C753 269.204 752.684 268.441 752.121 267.879C751.559 267.316 750.796 267 750 267C749.204 267 748.441 267.316 747.879 267.879C747.316 268.441 747 269.204 747 270V270Z" stroke="#3EB7ED"/>
<path d="M752 328L748 332L752 328Z" stroke="#3EB7ED"/>
<path d="M752 388L748 392L752 388Z" stroke="#3EB7ED"/>
<path d="M752 448L748 452L752 448Z" stroke="#3EB7ED"/>
<path d="M745 510C745 511.326 745.527 512.598 746.464 513.536C747.402 514.473 748.674 515 750 515C751.326 515 752.598 514.473 753.536 513.536C754.473 512.598 755 511.326 755 510C755 508.674 754.473 507.402 753.536 506.464C752.598 505.527 751.326 505 750 505C748.674 505 747.402 505.527 746.464 506.464C745.527 507.402 745 508.674 745 510V510Z" stroke="#3EB7ED"/>
<path d="M812 28L808 32L812 28Z" stroke="#3EB7ED"/>
<path d="M816 84L804 96L816 84Z" stroke="#3EB7ED"/>
<path d="M805 150C805 151.326 805.527 152.598 806.464 153.536C807.402 154.473 808.674 155 810 155C811.326 155 812.598 154.473 813.536 153.536C814.473 152.598 815 151.326 815 150C815 148.674 814.473 147.402 813.536 146.464C812.598 145.527 811.326 145 810 145C808.674 145 807.402 145.527 806.464 146.464C805.527 147.402 805 148.674 805 150V150Z" stroke="#3EB7ED"/>
<path d="M805 210C805 211.326 805.527 212.598 806.464 213.536C807.402 214.473 808.674 215 810 215C811.326 215 812.598 214.473 813.536 213.536C814.473 212.598 815 211.326 815 210C815 208.674 814.473 207.402 813.536 206.464C812.598 205.527 811.326 205 810 205C808.674 205 807.402 205.527 806.464 206.464C805.527 207.402 805 208.674 805 210V210Z" stroke="#3EB7ED"/>
<path d="M805 270C805 271.326 805.527 272.598 806.464 273.536C807.402 274.473 808.674 275 810 275C811.326 275 812.598 274.473 813.536 273.536C814.473 272.598 815 271.326 815 270C815 268.674 814.473 267.402 813.536 266.464C812.598 265.527 811.326 265 810 265C808.674 265 807.402 265.527 806.464 266.464C805.527 267.402 805 268.674 805 270V270Z" stroke="#3EB7ED"/>
<path d="M816 324L804 336L816 324Z" stroke="#3EB7ED"/>
<path d="M805 390C805 391.326 805.527 392.598 806.464 393.536C807.402 394.473 808.674 395 810 395C811.326 395 812.598 394.473 813.536 393.536C814.473 392.598 815 391.326 815 390C815 388.674 814.473 387.402 813.536 386.464C812.598 385.527 811.326 385 810 385C808.674 385 807.402 385.527 806.464 386.464C805.527 387.402 805 388.674 805 390V390Z" stroke="#3EB7ED"/>
<path d="M809 450C809 450.265 809.105 450.52 809.293 450.707C809.48 450.895 809.735 451 810 451C810.265 451 810.52 450.895 810.707 450.707C810.895 450.52 811 450.265 811 450C811 449.735 810.895 449.48 810.707 449.293C810.52 449.105 810.265 449 810 449C809.735 449 809.48 449.105 809.293 449.293C809.105 449.48 809 449.735 809 450V450Z" stroke="#3EB7ED"/>
<path d="M809 510C809 510.265 809.105 510.52 809.293 510.707C809.48 510.895 809.735 511 810 511C810.265 511 810.52 510.895 810.707 510.707C810.895 510.52 811 510.265 811 510C811 509.735 810.895 509.48 810.707 509.293C810.52 509.105 810.265 509 810 509C809.735 509 809.48 509.105 809.293 509.293C809.105 509.48 809 509.735 809 510V510Z" stroke="#3EB7ED"/>
<path d="M869 30C869 30.2652 869.105 30.5196 869.293 30.7071C869.48 30.8946 869.735 31 870 31C870.265 31 870.52 30.8946 870.707 30.7071C870.895 30.5196 871 30.2652 871 30C871 29.7348 870.895 29.4804 870.707 29.2929C870.52 29.1054 870.265 29 870 29C869.735 29 869.48 29.1054 869.293 29.2929C869.105 29.4804 869 29.7348 869 30V30Z" stroke="#3EB7ED"/>
<path d="M876 84L864 96L876 84Z" stroke="#3EB7ED"/>
<path d="M869 150C869 150.265 869.105 150.52 869.293 150.707C869.48 150.895 869.735 151 870 151C870.265 151 870.52 150.895 870.707 150.707C870.895 150.52 871 150.265 871 150C871 149.735 870.895 149.48 870.707 149.293C870.52 149.105 870.265 149 870 149C869.735 149 869.48 149.105 869.293 149.293C869.105 149.48 869 149.735 869 150V150Z" stroke="#3EB7ED"/>
<path d="M865 210C865 211.326 865.527 212.598 866.464 213.536C867.402 214.473 868.674 215 870 215C871.326 215 872.598 214.473 873.536 213.536C874.473 212.598 875 211.326 875 210C875 208.674 874.473 207.402 873.536 206.464C872.598 205.527 871.326 205 870 205C868.674 205 867.402 205.527 866.464 206.464C865.527 207.402 865 208.674 865 210V210Z" stroke="#3EB7ED"/>
<path d="M872 268L868 272L872 268Z" stroke="#3EB7ED"/>
<path d="M867 330C867 330.796 867.316 331.559 867.879 332.121C868.441 332.684 869.204 333 870 333C870.796 333 871.559 332.684 872.121 332.121C872.684 331.559 873 330.796 873 330C873 329.204 872.684 328.441 872.121 327.879C871.559 327.316 870.796 327 870 327C869.204 327 868.441 327.316 867.879 327.879C867.316 328.441 867 329.204 867 330V330Z" stroke="#3EB7ED"/>
<path d="M867 390C867 390.796 867.316 391.559 867.879 392.121C868.441 392.684 869.204 393 870 393C870.796 393 871.559 392.684 872.121 392.121C872.684 391.559 873 390.796 873 390C873 389.204 872.684 388.441 872.121 387.879C871.559 387.316 870.796 387 870 387C869.204 387 868.441 387.316 867.879 387.879C867.316 388.441 867 389.204 867 390V390Z" stroke="#3EB7ED"/>
<path d="M869 450C869 450.265 869.105 450.52 869.293 450.707C869.48 450.895 869.735 451 870 451C870.265 451 870.52 450.895 870.707 450.707C870.895 450.52 871 450.265 871 450C871 449.735 870.895 449.48 870.707 449.293C870.52 449.105 870.265 449 870 449C869.735 449 869.48 449.105 869.293 449.293C869.105 449.48 869 449.735 869 450V450Z" stroke="#3EB7ED"/>
<path d="M865 510C865 511.326 865.527 512.598 866.464 513.536C867.402 514.473 868.674 515 870 515C871.326 515 872.598 514.473 873.536 513.536C874.473 512.598 875 511.326 875 510C875 508.674 874.473 507.402 873.536 506.464C872.598 505.527 871.326 505 870 505C868.674 505 867.402 505.527 866.464 506.464C865.527 507.402 865 508.674 865 510V510Z" stroke="#3EB7ED"/>
<path d="M927 30C927 30.7956 927.316 31.5587 927.879 32.1213C928.441 32.6839 929.204 33 930 33C930.796 33 931.559 32.6839 932.121 32.1213C932.684 31.5587 933 30.7956 933 30C933 29.2044 932.684 28.4413 932.121 27.8787C931.559 27.3161 930.796 27 930 27C929.204 27 928.441 27.3161 927.879 27.8787C927.316 28.4413 927 29.2044 927 30V30Z" stroke="#3EB7ED"/>
<path d="M927 90C927 90.7956 927.316 91.5587 927.879 92.1213C928.441 92.6839 929.204 93 930 93C930.796 93 931.559 92.6839 932.121 92.1213C932.684 91.5587 933 90.7956 933 90C933 89.2044 932.684 88.4413 932.121 87.8787C931.559 87.3161 930.796 87 930 87C929.204 87 928.441 87.3161 927.879 87.8787C927.316 88.4413 927 89.2044 927 90V90Z" stroke="#3EB7ED"/>
<path d="M936 144L924 156L936 144Z" stroke="#3EB7ED"/>
<path d="M929 210C929 210.265 929.105 210.52 929.293 210.707C929.48 210.895 929.735 211 930 211C930.265 211 930.52 210.895 930.707 210.707C930.895 210.52 931 210.265 931 210C931 209.735 930.895 209.48 930.707 209.293C930.52 209.105 930.265 209 930 209C929.735 209 929.48 209.105 929.293 209.293C929.105 209.48 929 209.735 929 210V210Z" stroke="#3EB7ED"/>
<path d="M932 268L928 272L932 268Z" stroke="#3EB7ED"/>
<path d="M936 324L924 336L936 324Z" stroke="#3EB7ED"/>
<path d="M927 390C927 390.796 927.316 391.559 927.879 392.121C928.441 392.684 929.204 393 930 393C930.796 393 931.559 392.684 932.121 392.121C932.684 391.559 933 390.796 933 390C933 389.204 932.684 388.441 932.121 387.879C931.559 387.316 930.796 387 930 387C929.204 387 928.441 387.316 927.879 387.879C927.316 388.441 927 389.204 927 390V390Z" stroke="#3EB7ED"/>
<path d="M925 450C925 451.326 925.527 452.598 926.464 453.536C927.402 454.473 928.674 455 930 455C931.326 455 932.598 454.473 933.536 453.536C934.473 452.598 935 451.326 935 450C935 448.674 934.473 447.402 933.536 446.464C932.598 445.527 931.326 445 930 445C928.674 445 927.402 445.527 926.464 446.464C925.527 447.402 925 448.674 925 450V450Z" stroke="#3EB7ED"/>
<path d="M925 510C925 511.326 925.527 512.598 926.464 513.536C927.402 514.473 928.674 515 930 515C931.326 515 932.598 514.473 933.536 513.536C934.473 512.598 935 511.326 935 510C935 508.674 934.473 507.402 933.536 506.464C932.598 505.527 931.326 505 930 505C928.674 505 927.402 505.527 926.464 506.464C925.527 507.402 925 508.674 925 510V510Z" stroke="#3EB7ED"/>
<path d="M985 30C985 31.3261 985.527 32.5979 986.464 33.5355C987.402 34.4732 988.674 35 990 35C991.326 35 992.598 34.4732 993.536 33.5355C994.473 32.5979 995 31.3261 995 30C995 28.6739 994.473 27.4021 993.536 26.4645C992.598 25.5268 991.326 25 990 25C988.674 25 987.402 25.5268 986.464 26.4645C985.527 27.4021 985 28.6739 985 30V30Z" stroke="#3EB7ED"/>
<path d="M996 84L984 96L996 84Z" stroke="#3EB7ED"/>
<path d="M992 148L988 152L992 148Z" stroke="#3EB7ED"/>
<path d="M996 204L984 216L996 204Z" stroke="#3EB7ED"/>
<path d="M985 270C985 271.326 985.527 272.598 986.464 273.536C987.402 274.473 988.674 275 990 275C991.326 275 992.598 274.473 993.536 273.536C994.473 272.598 995 271.326 995 270C995 268.674 994.473 267.402 993.536 266.464C992.598 265.527 991.326 265 990 265C988.674 265 987.402 265.527 986.464 266.464C985.527 267.402 985 268.674 985 270V270Z" stroke="#3EB7ED"/>
<path d="M985 330C985 331.326 985.527 332.598 986.464 333.536C987.402 334.473 988.674 335 990 335C991.326 335 992.598 334.473 993.536 333.536C994.473 332.598 995 331.326 995 330C995 328.674 994.473 327.402 993.536 326.464C992.598 325.527 991.326 325 990 325C988.674 325 987.402 325.527 986.464 326.464C985.527 327.402 985 328.674 985 330V330Z" stroke="#3EB7ED"/>
<path d="M987 390C987 390.796 987.316 391.559 987.879 392.121C988.441 392.684 989.204 393 990 393C990.796 393 991.559 392.684 992.121 392.121C992.684 391.559 993 390.796 993 390C993 389.204 992.684 388.441 992.121 387.879C991.559 387.316 990.796 387 990 387C989.204 387 988.441 387.316 987.879 387.879C987.316 388.441 987 389.204 987 390V390Z" stroke="#3EB7ED"/>
<path d="M989 450C989 450.265 989.105 450.52 989.293 450.707C989.48 450.895 989.735 451 990 451C990.265 451 990.52 450.895 990.707 450.707C990.895 450.52 991 450.265 991 450C991 449.735 990.895 449.48 990.707 449.293C990.52 449.105 990.265 449 990 449C989.735 449 989.48 449.105 989.293 449.293C989.105 449.48 989 449.735 989 450V450Z" stroke="#3EB7ED"/>
<path d="M996 504L984 516L996 504Z" stroke="#3EB7ED"/>
<path d="M1056 24L1044 36L1056 24Z" stroke="#3EB7ED"/>
<path d="M1049 90C1049 90.2652 1049.11 90.5196 1049.29 90.7071C1049.48 90.8946 1049.73 91 1050 91C1050.27 91 1050.52 90.8946 1050.71 90.7071C1050.89 90.5196 1051 90.2652 1051 90C1051 89.7348 1050.89 89.4804 1050.71 89.2929C1050.52 89.1054 1050.27 89 1050 89C1049.73 89 1049.48 89.1054 1049.29 89.2929C1049.11 89.4804 1049 89.7348 1049 90V90Z" stroke="#3EB7ED"/>
<path d="M1052 148L1048 152L1052 148Z" stroke="#3EB7ED"/>
<path d="M1056 204L1044 216L1056 204Z" stroke="#3EB7ED"/>
<path d="M1045 270C1045 271.326 1045.53 272.598 1046.46 273.536C1047.4 274.473 1048.67 275 1050 275C1051.33 275 1052.6 274.473 1053.54 273.536C1054.47 272.598 1055 271.326 1055 270C1055 268.674 1054.47 267.402 1053.54 266.464C1052.6 265.527 1051.33 265 1050 265C1048.67 265 1047.4 265.527 1046.46 266.464C1045.53 267.402 1045 268.674 1045 270V270Z" stroke="#3EB7ED"/>
<path d="M1056 324L1044 336L1056 324Z" stroke="#3EB7ED"/>
<path d="M1080 360L1020 420L1080 360Z" stroke="#3EB7ED" stroke-width="3"/>
<path d="M1052 448L1048 452L1052 448Z" stroke="#3EB7ED"/>
<path d="M1047 510C1047 510.796 1047.32 511.559 1047.88 512.121C1048.44 512.684 1049.2 513 1050 513C1050.8 513 1051.56 512.684 1052.12 512.121C1052.68 511.559 1053 510.796 1053 510C1053 509.204 1052.68 508.441 1052.12 507.879C1051.56 507.316 1050.8 507 1050 507C1049.2 507 1048.44 507.316 1047.88 507.879C1047.32 508.441 1047 509.204 1047 510V510Z" stroke="#3EB7ED"/>
<path d="M1140 0L1080 60L1140 0Z" stroke="#3EB7ED" stroke-width="3"/>
<path d="M1105 90C1105 91.3261 1105.53 92.5979 1106.46 93.5355C1107.4 94.4732 1108.67 95 1110 95C1111.33 95 1112.6 94.4732 1113.54 93.5355C1114.47 92.5979 1115 91.3261 1115 90C1115 88.6739 1114.47 87.4021 1113.54 86.4645C1112.6 85.5268 1111.33 85 1110 85C1108.67 85 1107.4 85.5268 1106.46 86.4645C1105.53 87.4021 1105 88.6739 1105 90V90Z" stroke="#3EB7ED"/>
<path d="M1109 150C1109 150.265 1109.11 150.52 1109.29 150.707C1109.48 150.895 1109.73 151 1110 151C1110.27 151 1110.52 150.895 1110.71 150.707C1110.89 150.52 1111 150.265 1111 150C1111 149.735 1110.89 149.48 1110.71 149.293C1110.52 149.105 1110.27 149 1110 149C1109.73 149 1109.48 149.105 1109.29 149.293C1109.11 149.48 1109 149.735 1109 150V150Z" stroke="#3EB7ED"/>
<path d="M1105 210C1105 211.326 1105.53 212.598 1106.46 213.536C1107.4 214.473 1108.67 215 1110 215C1111.33 215 1112.6 214.473 1113.54 213.536C1114.47 212.598 1115 211.326 1115 210C1115 208.674 1114.47 207.402 1113.54 206.464C1112.6 205.527 1111.33 205 1110 205C1108.67 205 1107.4 205.527 1106.46 206.464C1105.53 207.402 1105 208.674 1105 210V210Z" stroke="#3EB7ED"/>
<path d="M1105 270C1105 271.326 1105.53 272.598 1106.46 273.536C1107.4 274.473 1108.67 275 1110 275C1111.33 275 1112.6 274.473 1113.54 273.536C1114.47 272.598 1115 271.326 1115 270C1115 268.674 1114.47 267.402 1113.54 266.464C1112.6 265.527 1111.33 265 1110 265C1108.67 265 1107.4 265.527 1106.46 266.464C1105.53 267.402 1105 268.674 1105 270V270Z" stroke="#3EB7ED"/>
<path d="M1105 330C1105 331.326 1105.53 332.598 1106.46 333.536C1107.4 334.473 1108.67 335 1110 335C1111.33 335 1112.6 334.473 1113.54 333.536C1114.47 332.598 1115 331.326 1115 330C1115 328.674 1114.47 327.402 1113.54 326.464C1112.6 325.527 1111.33 325 1110 325C1108.67 325 1107.4 325.527 1106.46 326.464C1105.53 327.402 1105 328.674 1105 330V330Z" stroke="#3EB7ED"/>
<path d="M1109 390C1109 390.265 1109.11 390.52 1109.29 390.707C1109.48 390.895 1109.73 391 1110 391C1110.27 391 1110.52 390.895 1110.71 390.707C1110.89 390.52 1111 390.265 1111 390C1111 389.735 1110.89 389.48 1110.71 389.293C1110.52 389.105 1110.27 389 1110 389C1109.73 389 1109.48 389.105 1109.29 389.293C1109.11 389.48 1109 389.735 1109 390V390Z" stroke="#3EB7ED"/>
<path d="M1116 444L1104 456L1116 444Z" stroke="#3EB7ED"/>
<path d="M1116 504L1104 516L1116 504Z" stroke="#3EB7ED"/>
<path d="M1172 28L1168 32L1172 28Z" stroke="#3EB7ED"/>
<path d="M1165 90C1165 91.3261 1165.53 92.5979 1166.46 93.5355C1167.4 94.4732 1168.67 95 1170 95C1171.33 95 1172.6 94.4732 1173.54 93.5355C1174.47 92.5979 1175 91.3261 1175 90C1175 88.6739 1174.47 87.4021 1173.54 86.4645C1172.6 85.5268 1171.33 85 1170 85C1168.67 85 1167.4 85.5268 1166.46 86.4645C1165.53 87.4021 1165 88.6739 1165 90V90Z" stroke="#3EB7ED"/>
<path d="M1176 144L1164 156L1176 144Z" stroke="#3EB7ED"/>
<path d="M1165 210C1165 211.326 1165.53 212.598 1166.46 213.536C1167.4 214.473 1168.67 215 1170 215C1171.33 215 1172.6 214.473 1173.54 213.536C1174.47 212.598 1175 211.326 1175 210C1175 208.674 1174.47 207.402 1173.54 206.464C1172.6 205.527 1171.33 205 1170 205C1168.67 205 1167.4 205.527 1166.46 206.464C1165.53 207.402 1165 208.674 1165 210V210Z" stroke="#3EB7ED"/>
<path d="M1167 270C1167 270.796 1167.32 271.559 1167.88 272.121C1168.44 272.684 1169.2 273 1170 273C1170.8 273 1171.56 272.684 1172.12 272.121C1172.68 271.559 1173 270.796 1173 270C1173 269.204 1172.68 268.441 1172.12 267.879C1171.56 267.316 1170.8 267 1170 267C1169.2 267 1168.44 267.316 1167.88 267.879C1167.32 268.441 1167 269.204 1167 270V270Z" stroke="#3EB7ED"/>
<path d="M1165 330C1165 331.326 1165.53 332.598 1166.46 333.536C1167.4 334.473 1168.67 335 1170 335C1171.33 335 1172.6 334.473 1173.54 333.536C1174.47 332.598 1175 331.326 1175 330C1175 328.674 1174.47 327.402 1173.54 326.464C1172.6 325.527 1171.33 325 1170 325C1168.67 325 1167.4 325.527 1166.46 326.464C1165.53 327.402 1165 328.674 1165 330V330Z" stroke="#3EB7ED"/>
<path d="M1200 360L1140 420L1200 360Z" stroke="#3EB7ED" stroke-width="3"/>
<path d="M1165 450C1165 451.326 1165.53 452.598 1166.46 453.536C1167.4 454.473 1168.67 455 1170 455C1171.33 455 1172.6 454.473 1173.54 453.536C1174.47 452.598 1175 451.326 1175 450C1175 448.674 1174.47 447.402 1173.54 446.464C1172.6 445.527 1171.33 445 1170 445C1168.67 445 1167.4 445.527 1166.46 446.464C1165.53 447.402 1165 448.674 1165 450V450Z" stroke="#3EB7ED"/>
<path d="M1165 510C1165 511.326 1165.53 512.598 1166.46 513.536C1167.4 514.473 1168.67 515 1170 515C1171.33 515 1172.6 514.473 1173.54 513.536C1174.47 512.598 1175 511.326 1175 510C1175 508.674 1174.47 507.402 1173.54 506.464C1172.6 505.527 1171.33 505 1170 505C1168.67 505 1167.4 505.527 1166.46 506.464C1165.53 507.402 1165 508.674 1165 510V510Z" stroke="#3EB7ED"/>
<path d="M1236 24L1224 36L1236 24Z" stroke="#3EB7ED"/>
<path d="M1229 90C1229 90.2652 1229.11 90.5196 1229.29 90.7071C1229.48 90.8946 1229.73 91 1230 91C1230.27 91 1230.52 90.8946 1230.71 90.7071C1230.89 90.5196 1231 90.2652 1231 90C1231 89.7348 1230.89 89.4804 1230.71 89.2929C1230.52 89.1054 1230.27 89 1230 89C1229.73 89 1229.48 89.1054 1229.29 89.2929C1229.11 89.4804 1229 89.7348 1229 90V90Z" stroke="#3EB7ED"/>
<path d="M1225 150C1225 151.326 1225.53 152.598 1226.46 153.536C1227.4 154.473 1228.67 155 1230 155C1231.33 155 1232.6 154.473 1233.54 153.536C1234.47 152.598 1235 151.326 1235 150C1235 148.674 1234.47 147.402 1233.54 146.464C1232.6 145.527 1231.33 145 1230 145C1228.67 145 1227.4 145.527 1226.46 146.464C1225.53 147.402 1225 148.674 1225 150V150Z" stroke="#3EB7ED"/>
<path d="M1225 210C1225 211.326 1225.53 212.598 1226.46 213.536C1227.4 214.473 1228.67 215 1230 215C1231.33 215 1232.6 214.473 1233.54 213.536C1234.47 212.598 1235 211.326 1235 210C1235 208.674 1234.47 207.402 1233.54 206.464C1232.6 205.527 1231.33 205 1230 205C1228.67 205 1227.4 205.527 1226.46 206.464C1225.53 207.402 1225 208.674 1225 210V210Z" stroke="#3EB7ED"/>
<path d="M1225 270C1225 271.326 1225.53 272.598 1226.46 273.536C1227.4 274.473 1228.67 275 1230 275C1231.33 275 1232.6 274.473 1233.54 273.536C1234.47 272.598 1235 271.326 1235 270C1235 268.674 1234.47 267.402 1233.54 266.464C1232.6 265.527 1231.33 265 1230 265C1228.67 265 1227.4 265.527 1226.46 266.464C1225.53 267.402 1225 268.674 1225 270V270Z" stroke="#3EB7ED"/>
<path d="M1236 324L1224 336L1236 324Z" stroke="#3EB7ED"/>
<path d="M1225 390C1225 391.326 1225.53 392.598 1226.46 393.536C1227.4 394.473 1228.67 395 1230 395C1231.33 395 1232.6 394.473 1233.54 393.536C1234.47 392.598 1235 391.326 1235 390C1235 388.674 1234.47 387.402 1233.54 386.464C1232.6 385.527 1231.33 385 1230 385C1228.67 385 1227.4 385.527 1226.46 386.464C1225.53 387.402 1225 388.674 1225 390V390Z" stroke="#3EB7ED"/>
<path d="M1232 448L1228 452L1232 448Z" stroke="#3EB7ED"/>
<path d="M1225 510C1225 511.326 1225.53 512.598 1226.46 513.536C1227.4 514.473 1228.67 515 1230 515C1231.33 515 1232.6 514.473 1233.54 513.536C1234.47 512.598 1235 511.326 1235 510C1235 508.674 1234.47 507.402 1233.54 506.464C1232.6 505.527 1231.33 505 1230 505C1228.67 505 1227.4 505.527 1226.46 506.464C1225.53 507.402 1225 508.674 1225 510V510Z" stroke="#3EB7ED"/>
<path d="M1260 540L1200 600L1260 540Z" stroke="#3EB7ED" stroke-width="3"/>
<path d="M1285 30C1285 31.3261 1285.53 32.5979 1286.46 33.5355C1287.4 34.4732 1288.67 35 1290 35C1291.33 35 1292.6 34.4732 1293.54 33.5355C1294.47 32.5979 1295 31.3261 1295 30C1295 28.6739 1294.47 27.4021 1293.54 26.4645C1292.6 25.5268 1291.33 25 1290 25C1288.67 25 1287.4 25.5268 1286.46 26.4645C1285.53 27.4021 1285 28.6739 1285 30V30Z" stroke="#3EB7ED"/>
<path d="M1285 90C1285 91.3261 1285.53 92.5979 1286.46 93.5355C1287.4 94.4732 1288.67 95 1290 95C1291.33 95 1292.6 94.4732 1293.54 93.5355C1294.47 92.5979 1295 91.3261 1295 90C1295 88.6739 1294.47 87.4021 1293.54 86.4645C1292.6 85.5268 1291.33 85 1290 85C1288.67 85 1287.4 85.5268 1286.46 86.4645C1285.53 87.4021 1285 88.6739 1285 90V90Z" stroke="#3EB7ED"/>
<path d="M1287 150C1287 150.796 1287.32 151.559 1287.88 152.121C1288.44 152.684 1289.2 153 1290 153C1290.8 153 1291.56 152.684 1292.12 152.121C1292.68 151.559 1293 150.796 1293 150C1293 149.204 1292.68 148.441 1292.12 147.879C1291.56 147.316 1290.8 147 1290 147C1289.2 147 1288.44 147.316 1287.88 147.879C1287.32 148.441 1287 149.204 1287 150V150Z" stroke="#3EB7ED"/>
<path d="M1285 210C1285 211.326 1285.53 212.598 1286.46 213.536C1287.4 214.473 1288.67 215 1290 215C1291.33 215 1292.6 214.473 1293.54 213.536C1294.47 212.598 1295 211.326 1295 210C1295 208.674 1294.47 207.402 1293.54 206.464C1292.6 205.527 1291.33 205 1290 205C1288.67 205 1287.4 205.527 1286.46 206.464C1285.53 207.402 1285 208.674 1285 210V210Z" stroke="#3EB7ED"/>
<path d="M1292 268L1288 272L1292 268Z" stroke="#3EB7ED"/>
<path d="M1320 300L1260 360L1320 300Z" stroke="#3EB7ED" stroke-width="3"/>
<path d="M1320 360L1260 420L1320 360Z" stroke="#3EB7ED" stroke-width="3"/>
<path d="M1285 450C1285 451.326 1285.53 452.598 1286.46 453.536C1287.4 454.473 1288.67 455 1290 455C1291.33 455 1292.6 454.473 1293.54 453.536C1294.47 452.598 1295 451.326 1295 450C1295 448.674 1294.47 447.402 1293.54 446.464C1292.6 445.527 1291.33 445 1290 445C1288.67 445 1287.4 445.527 1286.46 446.464C1285.53 447.402 1285 448.674 1285 450V450Z" stroke="#3EB7ED"/>
<path d="M1296 504L1284 516L1296 504Z" stroke="#3EB7ED"/>
<path d="M1345 30C1345 31.3261 1345.53 32.5979 1346.46 33.5355C1347.4 34.4732 1348.67 35 1350 35C1351.33 35 1352.6 34.4732 1353.54 33.5355C1354.47 32.5979 1355 31.3261 1355 30C1355 28.6739 1354.47 27.4021 1353.54 26.4645C1352.6 25.5268 1351.33 25 1350 25C1348.67 25 1347.4 25.5268 1346.46 26.4645C1345.53 27.4021 1345 28.6739 1345 30V30Z" stroke="#3EB7ED"/>
<path d="M1356 84L1344 96L1356 84Z" stroke="#3EB7ED"/>
<path d="M1347 150C1347 150.796 1347.32 151.559 1347.88 152.121C1348.44 152.684 1349.2 153 1350 153C1350.8 153 1351.56 152.684 1352.12 152.121C1352.68 151.559 1353 150.796 1353 150C1353 149.204 1352.68 148.441 1352.12 147.879C1351.56 147.316 1350.8 147 1350 147C1349.2 147 1348.44 147.316 1347.88 147.879C1347.32 148.441 1347 149.204 1347 150V150Z" stroke="#3EB7ED"/>
<path d="M1380 180L1320 240L1380 180Z" stroke="#3EB7ED" stroke-width="3"/>
<path d="M1356 264L1344 276L1356 264Z" stroke="#3EB7ED"/>
<path d="M1356 324L1344 336L1356 324Z" stroke="#3EB7ED"/>
<path d="M1345 390C1345 391.326 1345.53 392.598 1346.46 393.536C1347.4 394.473 1348.67 395 1350 395C1351.33 395 1352.6 394.473 1353.54 393.536C1354.47 392.598 1355 391.326 1355 390C1355 388.674 1354.47 387.402 1353.54 386.464C1352.6 385.527 1351.33 385 1350 385C1348.67 385 1347.4 385.527 1346.46 386.464C1345.53 387.402 1345 388.674 1345 390V390Z" stroke="#3EB7ED"/>
<path d="M1349 450C1349 450.265 1349.11 450.52 1349.29 450.707C1349.48 450.895 1349.73 451 1350 451C1350.27 451 1350.52 450.895 1350.71 450.707C1350.89 450.52 1351 450.265 1351 450C1351 449.735 1350.89 449.48 1350.71 449.293C1350.52 449.105 1350.27 449 1350 449C1349.73 449 1349.48 449.105 1349.29 449.293C1349.11 449.48 1349 449.735 1349 450V450Z" stroke="#3EB7ED"/>
<path d="M1349 510C1349 510.265 1349.11 510.52 1349.29 510.707C1349.48 510.895 1349.73 511 1350 511C1350.27 511 1350.52 510.895 1350.71 510.707C1350.89 510.52 1351 510.265 1351 510C1351 509.735 1350.89 509.48 1350.71 509.293C1350.52 509.105 1350.27 509 1350 509C1349.73 509 1349.48 509.105 1349.29 509.293C1349.11 509.48 1349 509.735 1349 510V510Z" stroke="#3EB7ED"/>
<path d="M1416 24L1404 36L1416 24Z" stroke="#3EB7ED"/>
<path d="M1412 88L1408 92L1412 88Z" stroke="#3EB7ED"/>
<path d="M1405 150C1405 151.326 1405.53 152.598 1406.46 153.536C1407.4 154.473 1408.67 155 1410 155C1411.33 155 1412.6 154.473 1413.54 153.536C1414.47 152.598 1415 151.326 1415 150C1415 148.674 1414.47 147.402 1413.54 146.464C1412.6 145.527 1411.33 145 1410 145C1408.67 145 1407.4 145.527 1406.46 146.464C1405.53 147.402 1405 148.674 1405 150V150Z" stroke="#3EB7ED"/>
<path d="M1405 210C1405 211.326 1405.53 212.598 1406.46 213.536C1407.4 214.473 1408.67 215 1410 215C1411.33 215 1412.6 214.473 1413.54 213.536C1414.47 212.598 1415 211.326 1415 210C1415 208.674 1414.47 207.402 1413.54 206.464C1412.6 205.527 1411.33 205 1410 205C1408.67 205 1407.4 205.527 1406.46 206.464C1405.53 207.402 1405 208.674 1405 210V210Z" stroke="#3EB7ED"/>
<path d="M1412 268L1408 272L1412 268Z" stroke="#3EB7ED"/>
<path d="M1412 328L1408 332L1412 328Z" stroke="#3EB7ED"/>
<path d="M1416 384L1404 396L1416 384Z" stroke="#3EB7ED"/>
<path d="M1405 450C1405 451.326 1405.53 452.598 1406.46 453.536C1407.4 454.473 1408.67 455 1410 455C1411.33 455 1412.6 454.473 1413.54 453.536C1414.47 452.598 1415 451.326 1415 450C1415 448.674 1414.47 447.402 1413.54 446.464C1412.6 445.527 1411.33 445 1410 445C1408.67 445 1407.4 445.527 1406.46 446.464C1405.53 447.402 1405 448.674 1405 450V450Z" stroke="#3EB7ED"/>
<path d="M1416 504L1404 516L1416 504Z" stroke="#3EB7ED"/>
</g>
</g>
<defs>
<clipPath id="clip0_27_317">
<rect width="1440" height="560" fill="white"/>
</clipPath>
</defs>
</svg>
