<svg width="1440" height="573" viewBox="0 0 1440 573" fill="none" xmlns="http://www.w3.org/2000/svg">
<g clip-path="url(#clip0_26_56)">
<mask id="mask0_26_56" style="mask-type:luminance" maskUnits="userSpaceOnUse" x="0" y="0" width="1440" height="573">
<path d="M0 0H1440V573H0V0Z" fill="white"/>
</mask>
<g mask="url(#mask0_26_56)">
<path d="M1000.67 943.807C887.055 899.402 756.303 846.333 710.415 733.304C664.653 620.587 753.058 501.253 772.233 381.12C789.472 273.118 766.521 159.649 817.429 62.8487C873.161 -43.1268 952.997 -153.671 1069.03 -183.232C1184 -212.525 1288.22 -112.004 1404.12 -86.6259C1520.84 -61.0679 1660.07 -110.964 1751.33 -33.8361C1842.96 43.5974 1870.99 181.113 1862.51 300.775C1854.83 409.184 1762.78 486.501 1707.82 580.261C1663.18 656.42 1631.3 736.633 1569.86 800.022C1498.97 873.157 1424.95 949.017 1326.2 973.963C1218.36 1001.2 1104.27 984.293 1000.67 943.807Z" fill="#D1EEFB"/>
</g>
</g>
<defs>
<clipPath id="clip0_26_56">
<rect width="1440" height="573" fill="white"/>
</clipPath>
</defs>
</svg>
